<svg xmlns="http://www.w3.org/2000/svg" enable-background="new 0 0 24 24" viewBox="0 0 24 24" id="adobe-lightroom"><path d="M11.75 16.5h-5C6.336 16.5 6 16.164 6 15.75v-10C6 5.336 6.336 5 6.75 5S7.5 5.336 7.5 5.75V15h4.25c.414 0 .75.336.75.75S12.164 16.5 11.75 16.5zM14.75 16.5c-.414 0-.75-.336-.75-.75v-6.5c0-.284.161-.544.415-.671C14.533 8.52 15.634 8 17.75 8c.414 0 .75.336.75.75S18.164 9.5 17.75 9.5c-1.07 0-1.822.155-2.25.277v5.973C15.5 16.164 15.164 16.5 14.75 16.5z"></path><path d="M21.249,24H2.751C1.234,24,0,22.766,0,21.249V2.751C0,1.234,1.234,0,2.751,0h18.497C22.766,0,24,1.234,24,2.751v18.497C24,22.766,22.766,24,21.249,24z M2.751,1.5C2.062,1.5,1.5,2.062,1.5,2.751v18.497c0,0.69,0.562,1.251,1.251,1.251h18.497c0.69,0,1.251-0.562,1.251-1.251V2.751c0-0.69-0.562-1.251-1.251-1.251H2.751z"></path></svg>